<?xml version="1.0" standalone="no"?>
<!DOCTYPE svg PUBLIC "-//W3C//DTD SVG 20010904//EN"
 "http://www.w3.org/TR/2001/REC-SVG-20010904/DTD/svg10.dtd">
<svg version="1.0" xmlns="http://www.w3.org/2000/svg"
 width="1024.000000pt" height="1024.000000pt" viewBox="0 0 1024.000000 1024.000000"
 preserveAspectRatio="xMidYMid meet">

<g transform="translate(0.000000,1024.000000) scale(0.100000,-0.100000)"
fill="#000000" stroke="none">
<path d="M4841 9220 c-932 -65 -1793 -431 -2497 -1061 -342 -305 -668 -738
-887 -1176 -306 -610 -451 -1269 -434 -1973 6 -252 23 -423 63 -645 229 -1273
1057 -2365 2233 -2944 527 -259 1021 -385 1610 -411 1157 -50 2234 359 3055
1160 350 342 595 676 809 1105 220 441 356 917 409 1435 20 188 16 688 -6 875
-111 950 -512 1790 -1167 2444 -679 680 -1560 1091 -2534 1181 -157 15 -509
20 -654 10z m694 -1962 c53 -50 585 -1053 585 -1104 0 -80 -70 -141 -153 -132
-26 3 -54 11 -63 18 -22 19 -65 97 -309 558 l-218 412 -659 0 c-362 0 -658 -2
-658 -5 0 -2 31 -64 69 -137 38 -73 155 -302 261 -508 106 -206 309 -599 452
-872 142 -274 258 -508 258 -520 -1 -41 -37 -106 -69 -122 -56 -29 -134 -14
-177 35 -20 23 -174 317 -745 1426 l-273 531 -41 -76 c-23 -43 -172 -336 -332
-652 -259 -514 -788 -1549 -944 -1847 l-58 -113 282 0 282 0 159 393 c88 215
246 608 353 872 106 264 202 488 213 499 43 44 159 28 194 -27 13 -18 288
-885 498 -1564 l53 -173 297 0 297 0 35 -31 c90 -79 50 -227 -66 -244 -24 -3
-673 -5 -1443 -3 l-1400 3 -33 23 c-44 32 -66 77 -66 137 0 46 26 100 321 675
306 596 856 1681 1150 2269 110 220 143 278 168 292 29 18 71 19 888 19 l857
0 35 -32z m1802 -1429 c88 -33 159 -121 201 -248 33 -102 35 -276 3 -396 -60
-229 -216 -399 -386 -421 -171 -21 -319 137 -344 367 -37 351 182 709 435 709
34 0 75 -5 91 -11z m-1050 -34 c71 -32 116 -69 170 -140 91 -119 143 -279 143
-440 0 -157 -41 -274 -127 -366 -62 -67 -112 -89 -200 -89 -142 0 -273 99
-353 265 -56 118 -73 198 -73 340 1 167 36 276 117 363 93 101 198 123 323 67z
m-610 -861 c176 -86 326 -360 309 -564 -7 -92 -31 -152 -82 -209 -57 -63 -110
-85 -197 -79 -223 14 -430 284 -430 563 -1 142 54 248 155 300 46 23 62 26
120 22 47 -3 85 -13 125 -33z m2304 5 c108 -54 173 -219 149 -376 -36 -233
-168 -412 -348 -472 -121 -41 -204 -21 -283 67 -130 144 -102 407 64 627 117
155 290 218 418 154z m-1166 -364 c134 -35 207 -97 338 -285 86 -124 155 -202
316 -355 96 -91 168 -195 197 -281 28 -87 26 -239 -5 -317 -43 -108 -131 -195
-245 -241 -40 -16 -74 -20 -161 -20 -99 -1 -122 3 -230 36 -260 80 -389 79
-650 -2 -236 -74 -418 -41 -550 101 -67 73 -96 145 -103 254 -11 191 66 342
261 516 114 101 178 173 273 310 41 59 94 129 118 155 109 121 280 171 441
129z"/>
<path d="M3810 5369 c0 -9 -106 -279 -236 -600 -130 -321 -239 -592 -241 -601
-5 -17 20 -18 431 -18 240 0 436 3 436 6 0 4 -72 239 -161 523 -88 284 -172
554 -187 601 -26 85 -42 118 -42 89z"/>
</g>
</svg>
